<?xml version="1.0" encoding="utf-8"?>
<!-- Generator: Adobe Illustrator 16.0.0, SVG Export Plug-In . SVG Version: 6.00 Build 0)  -->
<!DOCTYPE svg PUBLIC "-//W3C//DTD SVG 1.1//EN" "http://www.w3.org/Graphics/SVG/1.1/DTD/svg11.dtd">
<svg version="1.1" id="Calque_1" xmlns="http://www.w3.org/2000/svg" xmlns:xlink="http://www.w3.org/1999/xlink" x="0px" y="0px"
	 width="192px" height="192px" viewBox="0 0 192 192" enable-background="new 0 0 192 192" xml:space="preserve">
<g id="Calque_1_1_">
	<path fill="#FFCE0D" d="M192,162c0,16.568-13.432,30-30,30H30c-16.568,0-30-13.432-30-30V30C0,13.432,13.432,0,30,0h132
		c16.568,0,30,13.432,30,30V162z"/>
</g>
<g id="Calque_2">
	<g>
		<path fill="#FFFFFF" d="M33.604,141.822h-5.469v-27.346h5.469V141.822z M126.579,114.477v5.469H60.95v-5.469H126.579z
			 M55.481,119.945h-5.469v-5.469h5.469V119.945z M55.481,141.822h-5.469v-5.469h5.469V141.822z M39.074,130.883v-5.469h87.505
			v5.469H39.074z M137.52,141.822h-5.471v-27.346h5.471V141.822z M137.52,106.273c0-1.51,1.225-2.734,2.733-2.736h19.142v5.469
			h-19.142C138.743,109.004,137.52,107.781,137.52,106.273z M74.623,81.662h62.896v5.47H74.623V81.662z M137.52,76.193H74.623v-5.47
			h62.896V76.193z M74.623,92.6h62.896v5.468H74.623V92.6z M153.926,81.662h5.469v5.47h-5.469V81.662z M159.395,76.193h-5.469v-5.47
			h5.469V76.193z M153.926,92.6h5.469v5.468h-5.469V92.6z M142.986,130.883v-5.469h5.47v5.469H142.986z M159.395,141.822h-5.469
			v-27.346h5.469V141.822z M170.333,67.988h-5.47v-7.735C168.141,61.417,170.329,64.513,170.333,67.988z M159.395,59.785v5.47
			h-5.469v-5.47H159.395z M142.986,51.581c0-1.51,1.226-2.734,2.736-2.734c1.51,0,2.732,1.225,2.732,2.734v46.487h-5.469V51.581
			L142.986,51.581z M137.52,59.785v5.47H74.623v-5.47H137.52z M63.685,51.581c0-1.51,1.225-2.734,2.734-2.734
			c1.511,0,2.735,1.225,2.735,2.734v46.487h-5.469V51.581z M58.216,76.193h-8.204v-5.47h8.204V76.193z M50.012,81.662h8.204v5.47
			h-8.204V81.662z M52.414,62.187c1.535-1.543,3.625-2.408,5.802-2.402v5.47h-7.74C50.884,64.099,51.546,63.052,52.414,62.187z
			 M50.012,92.6h8.204v5.468h-8.204V92.6z M23.462,104.34c0.513-0.516,1.211-0.805,1.938-0.803h107.12
			c-0.627,1.77-0.627,3.701,0,5.469H25.4c-1.511-0.002-2.736-1.227-2.734-2.738C22.667,105.545,22.953,104.852,23.462,104.34z"/>
	</g>
</g>
</svg>
