<?xml version="1.0" encoding="utf-8"?>
<!-- Generator: Adobe Illustrator 16.0.0, SVG Export Plug-In . SVG Version: 6.00 Build 0)  -->
<!DOCTYPE svg PUBLIC "-//W3C//DTD SVG 1.1//EN" "http://www.w3.org/Graphics/SVG/1.1/DTD/svg11.dtd">
<svg version="1.1" id="Calque_1" xmlns="http://www.w3.org/2000/svg" xmlns:xlink="http://www.w3.org/1999/xlink" x="0px" y="0px"
	 width="192px" height="192px" viewBox="0 0 192 192" enable-background="new 0 0 192 192" xml:space="preserve">
<g id="Calque_1_1_">
	<path fill="#E7108C" d="M192,162c0,16.568-13.432,30-30,30H30c-16.568,0-30-13.432-30-30V30C0,13.432,13.432,0,30,0h132
		c16.568,0,30,13.432,30,30V162z"/>
</g>
<g id="Calque_2">
	<g>
		<g>
			<path fill="#FFFFFF" d="M70.78,151.085v-39.91H32.01v39.91c0,2.521,3.181,5.701,5.701,5.701h29.648
				C69.879,156.786,70.78,153.605,70.78,151.085z M43.413,146.523c0,0.629-0.511,1.141-1.14,1.141s-1.14-0.512-1.14-1.141v-29.647
				c0-0.631,0.511-1.142,1.14-1.142s1.14,0.512,1.14,1.142V146.523z M52.536,146.523c0,0.629-0.511,1.141-1.141,1.141
				s-1.14-0.512-1.14-1.141v-29.647c0-0.631,0.511-1.142,1.14-1.142s1.141,0.512,1.141,1.142V146.523z M61.658,146.523
				c0,0.629-0.511,1.141-1.14,1.141c-0.63,0-1.141-0.512-1.141-1.141v-29.647c0-0.631,0.511-1.142,1.141-1.142
				c0.629,0,1.14,0.512,1.14,1.142V146.523z"/>
			<path fill="#FFFFFF" d="M32.01,106.611h38.77v-4.561h4.562V97.49H61.658c0-2.52-1.628-4.562-3.635-4.562H45.908
				c-2.007,0-3.635,2.042-3.635,4.562H27.448v4.562h4.562V106.611z"/>
			<path fill="#FFFFFF" d="M112.594,72.47c3.33,32.973-26.978,83.6-26.978,83.6c34.638-18.653,40.351-49.457,40.351-49.457
				c10.098,15.854,10.608,54.449,10.608,54.449c19.317-46.293,0-89.923,0-89.923l27.977,11.656
				c-4.661-17.652-33.641-29.975-33.641-29.975C104.6,64.808,71.293,63.478,71.293,63.478
				C89.278,80.797,112.594,72.47,112.594,72.47z"/>
			<circle fill="#FFFFFF" cx="115.641" cy="39.931" r="10.324"/>
			<path fill="#FFFFFF" d="M49.97,81.526c1.425-0.57,6.557-3.137,6.86,0c0.303,3.135,2.832,2.279,4.542,0
				c1.711-2.281,0.855-5.987,2.851-5.702c1.996,0.285,3.706-2.566,4.276-5.184c0.57-2.619-5.417-4.509-7.982-5.118
				s-4.847,3.177-6.557,3.177s-4.276-4.849-5.987-2.568c-1.711,2.281-2.851,9.693-2.851,9.693c-2.565-1.426-5.132,1.711-5.987,3.991
				C38.28,82.095,48.544,82.096,49.97,81.526z"/>
		</g>
	</g>
</g>
</svg>
