<?xml version="1.0" encoding="utf-8"?>
<!-- Generator: Adobe Illustrator 16.0.0, SVG Export Plug-In . SVG Version: 6.00 Build 0)  -->
<!DOCTYPE svg PUBLIC "-//W3C//DTD SVG 1.1//EN" "http://www.w3.org/Graphics/SVG/1.1/DTD/svg11.dtd">
<svg version="1.1" id="Calque_1" xmlns="http://www.w3.org/2000/svg" xmlns:xlink="http://www.w3.org/1999/xlink" x="0px" y="0px"
	 width="192px" height="192px" viewBox="0 0 192 192" enable-background="new 0 0 192 192" xml:space="preserve">
<g id="Calque_1_1_">
	<path fill="#00AACD" d="M192,162c0,16.568-13.432,30-30,30H30c-16.568,0-30-13.432-30-30V30C0,13.432,13.432,0,30,0h132
		c16.568,0,30,13.432,30,30V162z"/>
	<g id="accessSymbol_1_">
		<path id="person_1_" fill="#FFFFFF" d="M75.204,45.913c7.053-0.649,12.523-6.716,12.523-13.81c0-7.635-6.227-13.868-13.867-13.868
			c-7.643,0-13.869,6.233-13.869,13.868c0,2.33,0.66,4.711,1.734,6.717l4.939,69.513l50.874,0.013l20.873,48.897l27.405-10.748
			l-4.243-10.103l-15.332,5.537l-20.188-46.618L78.742,95.63l-0.662-8.803l34.245,0.012V73.814l-35.542-0.012L75.204,45.913z"/>
		<path id="wheel_1_" fill="#FFFFFF" d="M126.383,145.604c-8.584,16.976-26.557,28.162-45.729,28.162
			c-28.163,0-51.135-22.969-51.135-51.129c0-19.771,11.982-38.145,29.872-46.287l1.156,15.101
			c-10.579,6.663-17.089,18.686-17.089,31.292c0,20.426,16.651,37.09,37.077,37.09c18.689,0,34.624-14.349,36.792-32.744
			L126.383,145.604z"/>
	</g>
</g>
<g id="Calque_2">
</g>
</svg>
