<?xml version="1.0" encoding="utf-8"?>
<!-- Generator: Adobe Illustrator 16.0.0, SVG Export Plug-In . SVG Version: 6.00 Build 0)  -->
<!DOCTYPE svg PUBLIC "-//W3C//DTD SVG 1.1//EN" "http://www.w3.org/Graphics/SVG/1.1/DTD/svg11.dtd">
<svg version="1.1" xmlns="http://www.w3.org/2000/svg" xmlns:xlink="http://www.w3.org/1999/xlink" x="0px" y="0px" width="192px"
	 height="53.831px" viewBox="0 0 192 53.831" enable-background="new 0 0 192 53.831" xml:space="preserve">
<g id="Calque_1">
	<linearGradient id="SVGID_1_" gradientUnits="userSpaceOnUse" x1="99.416" y1="87.4194" x2="99.416" y2="22.0591">
		<stop  offset="0" style="stop-color:#FFFFFF;stop-opacity:0"/>
		<stop  offset="0.0596" style="stop-color:#FDFDFD;stop-opacity:7.215092e-004"/>
		<stop  offset="0.081" style="stop-color:#F6F7F7;stop-opacity:9.813899e-004"/>
		<stop  offset="0.0963" style="stop-color:#EBEBEC;stop-opacity:0.0012"/>
		<stop  offset="0.1086" style="stop-color:#DADBDC;stop-opacity:0.0013"/>
		<stop  offset="0.1133" style="stop-color:#D1D3D4;stop-opacity:0.0014"/>
		<stop  offset="0.1633" style="stop-color:#D3D4D6;stop-opacity:0.0014"/>
		<stop  offset="0.1892" style="stop-color:#DADBDC;stop-opacity:0.0014"/>
		<stop  offset="0.2094" style="stop-color:#E4E5E6;stop-opacity:0.0015"/>
		<stop  offset="0.2118" style="stop-color:#E6E7E8;stop-opacity:0.0015"/>
		<stop  offset="0.5441" style="stop-color:#E4E5E6;stop-opacity:0.4224"/>
		<stop  offset="0.7326" style="stop-color:#DCDDDD;stop-opacity:0.6612"/>
		<stop  offset="0.8846" style="stop-color:#CFCFD0;stop-opacity:0.8538"/>
		<stop  offset="1" style="stop-color:#BFBFBF"/>
	</linearGradient>
	<ellipse fill="url(#SVGID_1_)" cx="99.416" cy="54.74" rx="151.5" ry="32.68"/>
	
		<linearGradient id="SVGID_2_" gradientUnits="userSpaceOnUse" x1="1.3315" y1="38.7124" x2="51.957" y2="38.7124" gradientTransform="matrix(0.2938 -0.5314 1.33 0.0342 -40.5548 57.1437)">
		<stop  offset="0" style="stop-color:#FFFFFF"/>
		<stop  offset="0.3" style="stop-color:#F3F4F4"/>
		<stop  offset="1" style="stop-color:#73BF44"/>
	</linearGradient>
	<path opacity="0.6" fill="url(#SVGID_2_)" d="M3.834,42.568c0.507-5.601,7.736-10.835,16.145-11.688l0,0
		c8.411-0.854,14.813,2.993,14.305,8.593l-0.596,6.571c-0.508,5.599-7.74,10.833-16.146,11.688l0,0
		c-8.41,0.854-14.814-2.993-14.306-8.595L3.834,42.568z"/>
</g>
<g id="Calque_2">
	<polygon fill="#FFFFFF" points="49.999,66.201 44.021,65.891 48.183,21.928 54.161,22.237 	"/>
	<polygon fill="#FFFFFF" points="165.113,66.117 159.18,66.732 150.876,23.09 156.81,22.474 	"/>
	<rect x="103.834" y="21.474" fill="#FFFFFF" width="6.833" height="48.133"/>
	<polygon fill="#FFFFFF" points="159.184,43.357 50.07,47.041 49.782,42.673 158.896,38.989 	"/>
</g>
<g id="Calque_4">
	
		<linearGradient id="SVGID_3_" gradientUnits="userSpaceOnUse" x1="173.665" y1="98.4302" x2="176.1073" y2="60.02" gradientTransform="matrix(-1.6786 0.3589 -0.4648 -1.3123 517.2439 65.8322)">
		<stop  offset="0" style="stop-color:#2484C6"/>
		<stop  offset="1" style="stop-color:#2484C6;stop-opacity:0"/>
	</linearGradient>
	<path opacity="0.6" fill="none" stroke="url(#SVGID_3_)" stroke-width="6" stroke-miterlimit="10" d="M201.963,18.755
		c0.058-9.072-6.647-16.473-14.976-16.529l0,0c-8.326-0.05-15.124,7.263-15.184,16.338l-0.074,11.949
		c-0.06,9.077,6.646,16.475,14.975,16.528l0,0c8.326,0.053,15.127-7.262,15.183-16.336L201.963,18.755z"/>
	
		<rect x="153.284" y="-12.601" transform="matrix(0.9936 0.1132 -0.1132 0.9936 1.9402 -20.144)" fill="#FFFFFF" width="50.166" height="39.231"/>
</g>
<g id="Calque_3">
	<g>
		<g>
			<path fill="#302743" d="M97.941,0.808v7.12c3.009,0,5.455,2.447,5.455,5.455s-2.446,5.456-5.455,5.456V33.97l9.986-12.553
				c1.793-2.268,2.74-4.993,2.74-7.882C110.668,6.518,104.959,0.808,97.941,0.808z"/>
			<path fill="#3F355B" d="M92.485,13.383c0-3.008,2.448-5.455,5.456-5.455v-7.12c-7.017,0-12.727,5.71-12.727,12.727
				c0,2.889,0.948,5.615,2.743,7.885l9.983,12.55V18.839C94.933,18.839,92.485,16.392,92.485,13.383z"/>
			<path fill="#FFFFFF" d="M92.485,13.383c0,3.008,2.448,5.456,5.456,5.456V7.928C94.933,7.928,92.485,10.375,92.485,13.383z"/>
		</g>
		<g>
		</g>
		<g>
		</g>
		<g>
		</g>
		<g>
		</g>
		<g>
		</g>
		<g>
		</g>
		<g>
		</g>
		<g>
		</g>
		<g>
		</g>
		<g>
		</g>
		<g>
		</g>
		<g>
		</g>
		<g>
		</g>
		<g>
		</g>
		<g>
		</g>
	</g>
	<g>
	</g>
	<g>
	</g>
	<g>
	</g>
	<g>
	</g>
	<g>
	</g>
	<g>
	</g>
</g>
</svg>
