<?xml version="1.0" encoding="utf-8"?>
<!-- Generator: Adobe Illustrator 16.0.0, SVG Export Plug-In . SVG Version: 6.00 Build 0)  -->
<!DOCTYPE svg PUBLIC "-//W3C//DTD SVG 1.1//EN" "http://www.w3.org/Graphics/SVG/1.1/DTD/svg11.dtd">
<svg version="1.1" id="Calque_1" xmlns="http://www.w3.org/2000/svg" xmlns:xlink="http://www.w3.org/1999/xlink" x="0px" y="0px"
	 width="192px" height="192px" viewBox="0 0 192 192" enable-background="new 0 0 192 192" xml:space="preserve">
<g id="Calque_1_1_">
	<path fill="#0FA85D" d="M192,162c0,16.568-13.432,30-30,30H30c-16.568,0-30-13.432-30-30V30C0,13.432,13.432,0,30,0h132
		c16.568,0,30,13.432,30,30V162z"/>
</g>
<g id="Calque_2">
	<g>
		<g>
			<circle fill="#FFFFFF" stroke="#FFFFFF" stroke-miterlimit="10" cx="103.878" cy="30.475" r="14.418"/>
			<path fill="#FFFFFF" stroke="#FFFFFF" stroke-miterlimit="10" d="M83.935,55.501c0.535-3.66,3.373-5.86,5.446-5.283l15.045,4.194
				c2.065,0.59,2.777,5.392,2.194,7.477l-12.395,50.89c-0.607,2.091-1.854,3.125-3.926,2.529l-10.164-2.201
				c-8.188-6.74-8.139-12.606-6.461-20.704L83.935,55.501z"/>
			<path fill="#FFFFFF" stroke="#FFFFFF" stroke-miterlimit="10" d="M71.03,113.977L68.452,132c0,0-6.632,15.75-11.191,25.001
				c-3.446,7.009-5.07,12.062-2.699,13.325c3.635,1.932,8.522-2.4,13.64-10.383c8.583-13.387,13.002-20.077,14.656-23.33
				l2.596-8.498C85.454,128.123,72.707,119.686,71.03,113.977z"/>
			<path fill="#FFFFFF" stroke="#FFFFFF" stroke-miterlimit="10" d="M116.582,121.436l-20.078-19.938
				c-3.167-3.191-7.896-1.689-11.099,1.482c-3.198,3.148-9.458,6.127-6.304,9.338l25.536,21.498l-2.826,27.549
				c-0.207,6.797,0.193,10.734,4.512,11.186c4.029,0.42,5.805-7.964,6.224-10.084c0,0,5.161-26.388,5.786-30.107
				C118.959,128.633,119.336,124.249,116.582,121.436z"/>
			<path fill="#FFFFFF" stroke="#FFFFFF" stroke-miterlimit="10" d="M140.859,62.321l-15.137,7.118l-19.066-13.92
				c-3.027-2.194-7.276-1.514-9.477,1.532c-2.195,3.033-1.516,7.27,1.53,9.477l20.563,14.893c1.934,1.392,4.906,2.122,7.082,1.179
				c0,0,14.121-8.577,17.906-11.045c3.971-2.601,8.122-6.017,6.59-8.886C148.678,58.546,144.715,60.461,140.859,62.321z"/>
			
				<line fill="none" stroke="#FFFFFF" stroke-width="1.1418" stroke-linecap="round" stroke-linejoin="round" stroke-miterlimit="10" x1="140.352" y1="54.795" x2="140.352" y2="170.289"/>
			<path fill="#FFFFFF" stroke="#FFFFFF" stroke-miterlimit="10" d="M76.847,54.905c0,0-9.021,27.999-10.388,32.448
				c-1.368,4.45-6.14,7.538-12.881,5.483c-6.741-2.061-13.737-4.887-12.644-12.766c1.198-8.583,9.306-19.98,16.339-27.311
				C64.307,45.435,80.366,42.887,76.847,54.905z"/>
		</g>
	</g>
</g>
</svg>
