<?xml version="1.0" encoding="utf-8"?>
<!-- Generator: Adobe Illustrator 16.0.0, SVG Export Plug-In . SVG Version: 6.00 Build 0)  -->
<!DOCTYPE svg PUBLIC "-//W3C//DTD SVG 1.1//EN" "http://www.w3.org/Graphics/SVG/1.1/DTD/svg11.dtd">
<svg version="1.1" id="Calque_1" xmlns="http://www.w3.org/2000/svg" xmlns:xlink="http://www.w3.org/1999/xlink" x="0px" y="0px"
	 width="192px" height="192px" viewBox="0 0 192 192" enable-background="new 0 0 192 192" xml:space="preserve">
<g id="Calque_1_1_">
	<path fill="#EF5A27" d="M192,162c0,16.568-13.432,30-30,30H30c-16.568,0-30-13.432-30-30V30C0,13.432,13.432,0,30,0h132
		c16.568,0,30,13.432,30,30V162z"/>
</g>
<g id="Calque_2">
	<g>
		<g id="XMLID_326_">
			<path id="XMLID_331_" fill="#FFFFFF" d="M139.777,55.584c7.023,0,12.717-5.686,12.717-12.706c0-7.025-5.692-12.71-12.717-12.71
				c-7.021,0-12.707,5.686-12.707,12.71C127.07,49.898,132.758,55.584,139.777,55.584z"/>
			<path id="XMLID_330_" fill="#FFFFFF" d="M173.839,100.99l-18.128-39.707c-0.979-2.162-3.197-3.096-5.445-3.096
				c-7.828,0-12.369-0.003-20.971-0.003c-2.249,0-4.468,0.934-5.449,3.099l-18.123,39.707c-1.252,2.732-0.048,5.957,2.682,7.205
				c0.734,0.332,1.502,0.492,2.254,0.492c2.064,0,4.041-1.183,4.949-3.183l8.765-19.204v20.686c0,0.037-0.019,0.068-0.019,0.105
				v46.885c0,3.604,2.92,6.523,6.521,6.523s6.521-2.92,6.521-6.523v-38.869h4.763v38.869c0,3.604,2.919,6.523,6.521,6.523
				c3.604,0,6.521-2.92,6.521-6.523v-46.885c0-0.029-0.014-0.051-0.014-0.078V86.302l8.765,19.204c0.909,2,2.885,3.182,4.946,3.182
				c0.754,0,1.523-0.16,2.259-0.492C173.885,106.947,175.089,103.723,173.839,100.99z"/>
			<path id="XMLID_329_" fill="#FFFFFF" d="M52.221,55.584c7.021,0,12.708-5.686,12.708-12.706c0-7.025-5.687-12.71-12.708-12.71
				c-7.024,0-12.713,5.686-12.713,12.71C39.508,49.898,45.197,55.584,52.221,55.584z"/>
			<path id="XMLID_328_" fill="#FFFFFF" d="M68.154,61.284c-0.895-1.966-2.824-3.099-4.851-3.137l-22.177-0.002
				c-2.027,0.041-3.945,1.173-4.837,3.139L18.161,100.99c-1.25,2.732-0.046,5.957,2.682,7.205c0.733,0.332,1.503,0.492,2.256,0.492
				c2.063,0,4.039-1.183,4.947-3.183l5.641-12.356l-4.911,23.123c-0.167,0.778,0.03,1.59,0.529,2.207
				c0.503,0.619,1.255,0.979,2.049,0.979h5.443v34.521c0,3.604,2.92,6.522,6.522,6.522s6.521-2.92,6.521-6.522v-34.521h4.762v34.521
				c0,3.604,2.92,6.522,6.521,6.522c3.603,0,6.522-2.92,6.522-6.522v-34.521h5.425c0.794,0,1.547-0.357,2.046-0.977
				c0.502-0.619,0.699-1.431,0.532-2.209l-4.923-23.18l5.665,12.413c0.91,2,2.885,3.183,4.95,3.183c0.754,0,1.52-0.16,2.254-0.492
				c2.729-1.248,3.932-4.473,2.682-7.205L68.154,61.284z"/>
			<path id="XMLID_327_" fill="#FFFFFF" d="M96.321,39.496c-2.405,0-4.351,1.948-4.351,4.35v103.369c0,2.4,1.945,4.348,4.351,4.348
				c2.404,0,4.349-1.946,4.349-4.348V43.846C100.67,41.445,98.725,39.496,96.321,39.496z"/>
		</g>
	</g>
</g>
</svg>
