<?xml version="1.0" encoding="utf-8"?>
<!-- Generator: Adobe Illustrator 16.0.0, SVG Export Plug-In . SVG Version: 6.00 Build 0)  -->
<!DOCTYPE svg PUBLIC "-//W3C//DTD SVG 1.1//EN" "http://www.w3.org/Graphics/SVG/1.1/DTD/svg11.dtd">
<svg version="1.1" id="Calque_1" xmlns="http://www.w3.org/2000/svg" xmlns:xlink="http://www.w3.org/1999/xlink" x="0px" y="0px"
	 width="192px" height="192px" viewBox="0 0 192 192" enable-background="new 0 0 192 192" xml:space="preserve">
<g id="Calque_1_1_">
	<path fill="#5E328F" d="M192,162c0,16.568-13.432,30-30,30H30c-16.568,0-30-13.432-30-30V30C0,13.432,13.432,0,30,0h132
		c16.568,0,30,13.432,30,30V162z"/>
</g>
<g id="Calque_2">
	<g>
		<g>
			<g>
				<circle fill="#FFFFFF" cx="96.332" cy="131.832" r="16.434"/>
				<path fill="#FFFFFF" d="M135.605,92.238c-0.24-0.25-0.498-0.474-0.75-0.704l-0.739-0.698c-0.12-0.129-0.257-0.224-0.412-0.345
					c-21.25-19.306-53.771-18.541-74.053,1.741l-2.377,2.384l-3.292,3.292c-4.01,4.01-3.99,10.547,0.027,14.564
					c4.024,4.028,10.561,4.036,14.564,0.024l5.676-5.677c12.898-12.89,33.877-12.89,46.767-0.006l4.098,3.97
					c3.971,3.971,10.447,3.963,14.438-0.035c1.93-1.922,2.993-4.49,3.002-7.22c0.006-2.717-1.045-5.284-2.975-7.2L135.605,92.238z"
					/>
				<path fill="#FFFFFF" d="M163.605,71.923l-3.416-3.415c-0.013-0.014-0.02-0.034-0.047-0.04l-2.695-2.71
					c-0.475-0.467-0.989-0.874-1.53-1.226c-34.638-30.408-87.316-29.473-120.848,2.785c-0.163,0.149-0.346,0.25-0.509,0.414
					l-6.164,6.171c-3.658,3.651-3.638,9.592,0.041,13.27c3.671,3.671,9.612,3.699,13.27,0.034l6.165-6.158
					c0.04-0.054,0.074-0.102,0.115-0.135c27.116-26.195,70.13-26.357,97.462-0.535l4.852,4.857c3.651,3.65,9.605,3.637,13.277-0.035
					C167.241,81.521,167.256,75.575,163.605,71.923z"/>
			</g>
		</g>
	</g>
</g>
</svg>
